<svg id="Icons" xmlns="http://www.w3.org/2000/svg" viewBox="0 0 475.55 475.55"><defs><style>.cls-1{fill:#480036;}.cls-2{fill:#ff40f0;}</style></defs><rect class="cls-1" x="15" y="15" width="445.55" height="445.55"/><path class="cls-2" d="M445.55,30V445.55H30V30H445.55m30-30H0V475.55H475.55V0Z"/><path class="cls-2" d="M64.28,146.72c0-1.37.27-1.92,1.92-2.19,8-.27,26.6-.82,51.84-.82,64.46,0,96.83,36.48,96.83,87.5,0,66.93-51,93.81-97.38,93.81-17.28,0-42.52,0-51.29-.55-1.1,0-1.92-.82-1.92-2.47ZM97.47,295.94c5.48.28,11.52.28,18.65.28,38.68,0,64.73-22.49,64.73-64.19,0-39.77-26-59.52-63.09-59.52-7.68,0-13.71.27-20.29.55Z"/><path class="cls-2" d="M357.77,324.47c-1.92,0-2.47-.82-3-2.47-15.9-61.17-20.57-85.58-23.31-99h-.28c-6.3,27.43-13.16,53.76-26.05,99.3a2.73,2.73,0,0,1-3,2.19h-29.9c-2.74,0-3-.55-3.57-2.19L233,191.44c-.55-1.38.27-2.2,1.92-2.2h30.17c1.37,0,1.92.28,2.19,1.65,16.46,64.46,20.58,90.52,22.5,101.49h.54c2.2-9.6,6.86-34.56,25-100.94.27-1.65.54-2.2,2.46-2.2h31.55a1.91,1.91,0,0,1,2.19,1.65c17,66.93,20.85,91.34,23,102.31h.55c3.29-16.46,7.41-43.89,23.32-102.31a2.21,2.21,0,0,1,2.47-1.65h27.7c1.1,0,2.2.55,1.65,1.92L391,322.28c-.82,1.64-1.09,2.19-3,2.19Z"/></svg>