<svg id="Icons" xmlns="http://www.w3.org/2000/svg" viewBox="0 0 475.55 475.55"><defs><style>.cls-1{fill:#001d33;}.cls-2{fill:#00a7ff;}</style></defs><rect class="cls-1" x="15" y="15" width="445.55" height="445.55"/><path class="cls-2" d="M445.55,30V445.55H30V30H445.55m30-30H0V475.55H475.55V0Z"/><path class="cls-2" d="M136.75,331.4c-2.36,0-2.95-.88-2.95-2.95V140c0-1.47.59-2.65,2.36-2.65h31.61c1.18,0,1.77.88,1.77,2.06V299.2h86.85c1.77,0,2.36.89,2.06,2.07l-5,27.77c-.29,2.07-1.18,2.36-2.66,2.36Z"/><path class="cls-2" d="M307.48,185.77a2.92,2.92,0,0,1,3.25,2.36c1.48,3.84,2.66,11.23,3,17.73,10-12.41,26.88-23,47.26-23,1.77,0,2.36.29,2.36,2.07V216.2c0,1.47-.59,2.06-2.66,2.06-21-.59-38.4,6.8-45.19,15.66V329c0,1.77-.89,2.36-2.66,2.36H282.08c-2.07,0-2.66-.88-2.66-2.36V227.13c0-12.71-.29-29.84-1.48-39.59,0-1.47.3-1.77,1.78-1.77Z"/></svg>